<svg width="20" height="20" viewBox="0 0 20 20" fill="none" xmlns="http://www.w3.org/2000/svg">
<g clip-path="url(#clip0_45_428)">
<path d="M9.97464 9.10717C9.53502 9.10717 9.11562 8.93581 8.80738 8.62334L5.74015 5.55403C5.12367 4.93412 4.79017 4.11262 4.79522 3.24072C4.80028 2.36881 5.14389 1.55235 5.76542 0.942519C6.38695 0.32765 7.20555 -0.00498347 8.07973 5.64399e-05C8.76695 0.00509635 9.42386 0.221812 9.96959 0.614925C10.5204 0.221812 11.1773 0.00509635 11.8645 5.64399e-05C11.8696 5.64399e-05 11.8797 5.64399e-05 11.8847 5.64399e-05C12.7488 5.64399e-05 13.5674 0.33269 14.1839 0.942519C14.8054 1.55235 15.149 2.36881 15.1541 3.24072C15.1591 4.11262 14.8256 4.93412 14.2091 5.55403L11.1419 8.62334C10.8337 8.93581 10.4143 9.10717 9.97464 9.10717ZM8.05952 1.15923C7.50368 1.15923 6.97816 1.37595 6.57896 1.76402C6.17977 2.15714 5.95743 2.68633 5.95238 3.24576C5.94733 3.80519 6.16461 4.33438 6.55875 4.73757L9.62598 7.80183C9.71693 7.89255 9.84326 7.94295 9.97464 7.94295C10.106 7.94295 10.2273 7.89255 10.3233 7.80183L13.3855 4.73757C13.7796 4.33942 13.9969 3.81023 13.9919 3.2508C13.9868 2.69137 13.7645 2.16218 13.3653 1.76906C12.9661 1.37595 12.4355 1.15923 11.8696 1.16427C11.3087 1.16931 10.7781 1.39107 10.3839 1.78922C10.2728 1.9001 10.1262 1.96058 9.96959 1.96058C9.81294 1.96058 9.6664 1.9001 9.55524 1.78922C9.16109 1.39107 8.63052 1.16931 8.06963 1.16427C8.06963 1.15923 8.06457 1.15923 8.05952 1.15923Z" fill="url(#paint0_linear_45_428)" fill-opacity="0.9"/>
<path d="M11.8898 19.8962C11.8847 19.8962 11.8746 19.8962 11.8696 19.8962C11.1823 19.8911 10.5254 19.6744 9.9797 19.2813C9.43396 19.6744 8.77706 19.8911 8.08984 19.8962C7.21565 19.9012 6.392 19.5686 5.77047 18.9537C5.14389 18.3439 4.80028 17.5274 4.79522 16.6555C4.79017 15.7836 5.12367 14.9621 5.74015 14.3422L8.80738 11.2729C9.12067 10.9604 9.53502 10.7891 9.97464 10.7891C10.4143 10.7891 10.8337 10.9604 11.1419 11.2729L14.2091 14.3422C14.8256 14.9621 15.1591 15.7836 15.1541 16.6555C15.149 17.5274 14.8054 18.3439 14.1839 18.9537C13.5674 19.5635 12.7538 19.8962 11.8898 19.8962ZM9.97464 17.9407C10.1313 17.9407 10.2778 18.0012 10.389 18.112C10.7831 18.5102 11.3137 18.732 11.8746 18.737C11.8797 18.737 11.8847 18.737 11.8898 18.737C12.4456 18.737 12.9711 18.5203 13.3703 18.1322C13.7695 17.7391 13.9919 17.2099 13.9969 16.6505C14.002 16.091 13.7847 15.5619 13.3905 15.1587L10.3233 12.0944C10.2323 12.0037 10.106 11.9533 9.97464 11.9533C9.84326 11.9533 9.72199 12.0037 9.62598 12.0944L6.55875 15.1637C6.16461 15.5619 5.94733 16.091 5.95238 16.6505C5.95743 17.2099 6.17977 17.7391 6.57896 18.1322C6.97816 18.5253 7.50368 18.737 8.05952 18.737C8.06457 18.737 8.06963 18.737 8.07468 18.737C8.63557 18.732 9.16615 18.5102 9.56029 18.112C9.67146 18.0012 9.818 17.9407 9.97464 17.9407Z" fill="url(#paint1_linear_45_428)" fill-opacity="0.9"/>
<path d="M3.26941 15.1131C3.26435 15.1131 3.25425 15.1131 3.24919 15.1131C2.37501 15.108 1.55641 14.7653 0.944985 14.1454C0.328508 13.5255 -0.0049965 12.704 5.65876e-05 11.8321C0.00510968 11.1467 0.222393 10.4915 0.616534 9.94715C0.222393 9.40284 0.00510968 8.74766 5.65876e-05 8.05719C-0.0049965 7.18528 0.328508 6.36378 0.944985 5.74387C1.55641 5.129 2.37501 4.78629 3.24919 4.78125C3.25425 4.78125 3.26435 4.78125 3.26941 4.78125C4.13349 4.78125 4.95209 5.11388 5.56856 5.72371L8.6459 8.78293C8.95919 9.09541 9.13099 9.50868 9.13099 9.94715C9.13099 10.3856 8.95919 10.8039 8.6459 11.1114L5.56856 14.1706C4.95209 14.7804 4.13349 15.1131 3.26941 15.1131ZM3.26941 5.94043C3.26435 5.94043 3.2593 5.94043 3.25425 5.94043C2.69335 5.94547 2.16278 6.16722 1.76864 6.56538C1.3745 6.96353 1.15721 7.49272 1.16227 8.05719C1.16732 8.61662 1.38966 9.14581 1.78885 9.53892C1.90002 9.6498 1.96066 9.79596 1.96066 9.95219C1.96066 10.1084 1.90002 10.2546 1.78885 10.3655C1.38966 10.7586 1.16732 11.2878 1.16227 11.8472C1.15721 12.4066 1.3745 12.9358 1.76864 13.339C2.16278 13.7372 2.69335 13.9589 3.25425 13.964C3.2593 13.964 3.26435 13.964 3.26941 13.964C3.82525 13.964 4.35077 13.7472 4.74996 13.3592L7.82224 10.2999C7.9132 10.2092 7.96373 10.0832 7.96373 9.95219C7.96373 9.82116 7.9132 9.7002 7.82224 9.60444L4.74996 6.54018C4.35077 6.1521 3.82525 5.94043 3.26941 5.94043Z" fill="url(#paint2_linear_45_428)" fill-opacity="0.9"/>
<path d="M27.8478 19.8959H24.8563C23.2798 19.8959 21.7386 19.5885 20.2883 18.9736C18.8331 18.3638 17.5395 17.4818 16.4379 16.3529L11.2989 11.1114C10.9856 10.7989 10.8188 10.3856 10.8188 9.94715C10.8188 9.50868 10.9907 9.09037 11.3039 8.78294L14.3813 5.72371C14.9978 5.11388 15.8164 4.78125 16.6804 4.78125C16.6855 4.78125 16.6956 4.78125 16.7006 4.78125C17.5748 4.78629 18.3934 5.129 19.0049 5.74891C19.6163 6.36882 19.9548 7.19032 19.9498 8.06223C19.9447 8.93413 19.6011 9.7506 18.9796 10.3604C18.7522 10.5872 18.3833 10.5822 18.1559 10.3554C17.9285 10.1286 17.9336 9.76068 18.161 9.53388C18.5602 9.14077 18.7825 8.61158 18.7876 8.05215C18.7926 7.49272 18.5753 6.96353 18.1812 6.56034C17.7871 6.16218 17.2565 5.94043 16.6956 5.93539C16.6905 5.93539 16.6855 5.93539 16.6804 5.93539C16.1246 5.93539 15.5991 6.1521 15.1999 6.54018L12.1276 9.5994C12.0366 9.69012 11.9861 9.81612 11.9861 9.94715C11.9861 10.0782 12.0366 10.1991 12.1276 10.2949L12.1327 10.2999L17.2666 15.5465C19.2525 17.5725 22.0165 18.7367 24.8563 18.7367H27.8478C28.1712 18.7367 28.4289 18.9938 28.4289 19.3163C28.4289 19.6389 28.1661 19.8959 27.8478 19.8959Z" fill="url(#paint3_linear_45_428)" fill-opacity="0.9"/>
</g>
<defs>
<linearGradient id="paint0_linear_45_428" x1="6.55019" y1="0.359493" x2="16.0001" y2="5.92836" gradientUnits="userSpaceOnUse">
<stop stop-color="#577EC9"/>
<stop offset="1" stop-color="#17478E" stop-opacity="0.94"/>
</linearGradient>
<linearGradient id="paint1_linear_45_428" x1="6.55019" y1="11.1486" x2="16.0001" y2="16.7174" gradientUnits="userSpaceOnUse">
<stop stop-color="#577EC9"/>
<stop offset="1" stop-color="#17478E" stop-opacity="0.94"/>
</linearGradient>
<linearGradient id="paint2_linear_45_428" x1="1.54699" y1="5.18908" x2="10.8244" y2="9.437" gradientUnits="userSpaceOnUse">
<stop stop-color="#577EC9"/>
<stop offset="1" stop-color="#17478E" stop-opacity="0.94"/>
</linearGradient>
<linearGradient id="paint3_linear_45_428" x1="13.8024" y1="5.37788" x2="29.6658" y2="14.9535" gradientUnits="userSpaceOnUse">
<stop stop-color="#577EC9"/>
<stop offset="1" stop-color="#17478E" stop-opacity="0.94"/>
</linearGradient>
<clipPath id="clip0_45_428">
<rect width="20" height="20" fill="white"/>
</clipPath>
</defs>
</svg>
